<?xml version="1.0" encoding="utf-8"?>
<!-- Generator: Adobe Illustrator 27.8.1, SVG Export Plug-In . SVG Version: 6.00 Build 0)  -->
<svg version="1.1" xmlns="http://www.w3.org/2000/svg" xmlns:xlink="http://www.w3.org/1999/xlink" x="0px" y="0px"
	 viewBox="0 0 47.72 47.93" style="enable-background:new 0 0 47.72 47.93;" xml:space="preserve">
<style type="text/css">
	.st0{display:none;}
	.st1{fill:#35C6F4;}
	.st2{fill:#EF3846;}
	.st3{fill:#EF3947;}
	.st4{fill:#3AC6F3;}
	.st5{fill:#FFFFFF;}
</style>
<g id="Layer_1" class="st0">
</g>
<g id="Layer_2">
	<g>
		<rect x="0" y="0.01" class="st1" width="23.16" height="23.16"/>
		<rect x="24.57" y="0.01" class="st2" width="23.16" height="23.16"/>
		<rect x="0" y="24.77" class="st2" width="23.16" height="23.16"/>
		<rect x="24.57" y="24.77" class="st2" width="23.16" height="23.16"/>
		<g>
			<path class="st3" d="M20.22,12.6c-0.05,0.3-0.09,0.61-0.16,0.91c-0.35,1.62-1.19,2.95-2.47,3.99c-0.34,0.27-0.73,0.48-1.11,0.71
				c-0.05,0.03-0.1,0.04-0.18,0.08c0.21-0.6,0.41-1.16,0.6-1.72c0.31-0.9,0.57-1.81,0.62-2.77c0.06-1.03-0.14-2.02-0.58-2.96
				c-0.59-1.27-1.48-2.32-2.46-3.29c-0.28-0.27-0.56-0.53-0.88-0.83c-0.03,0.25-0.07,0.46-0.09,0.68c-0.13,1.08-0.26,2.17-0.4,3.25
				c-0.14,1.12-0.3,2.24-0.45,3.36c-0.15,1.13-0.3,2.27-0.44,3.4c-0.13,1.06-0.26,2.12-0.39,3.18c-0.01,0.05-0.03,0.11-0.07,0.15
				c-0.93,1.06-2.02,1.91-3.42,2.23c-1.74,0.41-3.27,0.01-4.52-1.29c-0.46-0.48-0.71-1.07-0.79-1.74c-0.11-0.92-0.05-1.81,0.38-2.65
				c0.57-1.1,1.48-1.71,2.71-1.87c1.24-0.16,2.38,0.18,3.49,0.69c0.27,0.13,0.54,0.27,0.83,0.42c0.05-0.38,0.11-0.74,0.16-1.1
				c0.15-1.1,0.31-2.2,0.45-3.3c0.15-1.11,0.29-2.23,0.44-3.35c0.13-1.01,0.27-2.02,0.4-3.04c0.14-1.01,0.27-2.01,0.41-3.02
				c0.12-0.88,0.24-1.77,0.36-2.65c0-0.02,0.02-0.05,0.03-0.07c0.05,0,0.1,0,0.16,0c0.03,0.01,0.07,0.03,0.1,0.04
				c0.53,0.09,1.06,0.18,1.58,0.26c0.13,0.02,0.18,0.08,0.22,0.19c0.33,0.89,0.66,1.78,1,2.66c0.29,0.73,0.7,1.38,1.28,1.92
				c0.65,0.61,1.2,1.31,1.67,2.08c0.65,1.07,1.15,2.21,1.38,3.45c0.05,0.28,0.09,0.57,0.14,0.86C20.22,11.85,20.22,12.22,20.22,12.6
				z"/>
		</g>
		<g>
			<path class="st4" d="M44.77,37.38c-0.05,0.3-0.09,0.61-0.16,0.91c-0.35,1.62-1.19,2.95-2.47,3.99c-0.34,0.27-0.73,0.48-1.11,0.71
				c-0.05,0.03-0.1,0.04-0.18,0.08c0.21-0.6,0.41-1.16,0.6-1.72c0.31-0.9,0.57-1.81,0.62-2.77c0.06-1.03-0.14-2.02-0.58-2.96
				c-0.59-1.27-1.48-2.32-2.46-3.29c-0.28-0.27-0.56-0.53-0.88-0.83c-0.03,0.25-0.07,0.46-0.09,0.68c-0.13,1.08-0.26,2.17-0.4,3.25
				c-0.14,1.12-0.3,2.24-0.45,3.36c-0.15,1.13-0.3,2.27-0.44,3.4c-0.13,1.06-0.26,2.12-0.39,3.18c-0.01,0.05-0.03,0.11-0.07,0.15
				c-0.93,1.06-2.02,1.91-3.42,2.23c-1.74,0.41-3.27,0.01-4.52-1.29c-0.46-0.48-0.71-1.07-0.79-1.74c-0.11-0.92-0.05-1.81,0.38-2.65
				c0.57-1.1,1.48-1.71,2.71-1.87c1.24-0.16,2.38,0.18,3.49,0.69c0.27,0.13,0.54,0.27,0.83,0.42c0.05-0.38,0.11-0.74,0.16-1.1
				c0.15-1.1,0.31-2.2,0.45-3.3c0.15-1.11,0.29-2.23,0.44-3.35c0.13-1.01,0.27-2.02,0.4-3.04c0.14-1.01,0.27-2.01,0.41-3.02
				c0.12-0.88,0.24-1.77,0.36-2.65c0-0.02,0.02-0.05,0.03-0.07c0.05,0,0.1,0,0.16,0c0.03,0.01,0.07,0.03,0.1,0.04
				c0.53,0.09,1.06,0.18,1.58,0.26c0.13,0.02,0.18,0.08,0.22,0.19c0.33,0.89,0.66,1.78,1,2.66c0.29,0.73,0.7,1.38,1.28,1.92
				c0.65,0.61,1.2,1.31,1.67,2.08c0.65,1.07,1.15,2.21,1.38,3.45c0.05,0.28,0.09,0.57,0.14,0.86
				C44.77,36.63,44.77,37.01,44.77,37.38z"/>
		</g>
		<g>
			<g>
				<path class="st5" d="M4.55,47.96c-0.1,0-0.19,0-0.27,0c-0.08,0-0.17,0-0.26,0s-0.18,0-0.27,0c-0.01,0-0.03,0-0.04-0.01
					c-0.01-0.01-0.02-0.02-0.03-0.03c-0.01-0.01-0.01-0.02-0.01-0.04v-0.82c0.1,0,0.19,0,0.27,0s0.17,0,0.26,0c0.08,0,0.17,0,0.27,0
					c0.02,0,0.03,0,0.04,0.01c0.01,0.01,0.02,0.01,0.02,0.02s0.01,0.02,0.01,0.04V47.96z"/>
				<path class="st5" d="M6.46,47.91c-0.06,0-0.12,0-0.18,0c-0.06,0-0.11,0-0.17,0c-0.06,0-0.12,0-0.18,0c-0.01,0-0.02,0-0.04-0.01
					s-0.02-0.01-0.03-0.02c-0.01-0.01-0.01-0.02-0.01-0.04c0-0.35,0-0.7,0-1.04s0-0.7,0-1.04s0-0.7,0-1.04c0-0.35,0-0.7,0-1.04
					c0-0.14,0-0.26,0-0.38c0-0.11,0-0.2,0-0.27c0.07,0,0.13,0,0.19,0c0.06,0,0.11,0,0.17,0c0.05,0,0.11,0,0.17,0
					c0.02,0,0.03,0,0.04,0.01c0.01,0.01,0.02,0.01,0.02,0.02c0.01,0.01,0.01,0.02,0.01,0.04c0,0.4,0,0.8,0,1.2s0,0.8,0,1.21
					s0,0.8,0,1.21S6.46,47.51,6.46,47.91z M6.35,46.14h0.21c0.04-0.09,0.08-0.17,0.12-0.23c0.04-0.07,0.08-0.13,0.12-0.19
					s0.09-0.12,0.14-0.17s0.1-0.11,0.16-0.17c0.07-0.08,0.16-0.16,0.25-0.26c0.1-0.09,0.2-0.2,0.32-0.31
					c0.11-0.11,0.24-0.23,0.36-0.36l0.64-0.01c0.02,0,0.03,0,0.04,0.01s0.02,0.01,0.02,0.02c0.01,0.01,0.01,0.02,0.01,0.04
					c0,0,0,0.01-0.01,0.03c-0.01,0.01-0.02,0.03-0.05,0.06C8.55,44.73,8.41,44.86,8.28,45s-0.27,0.26-0.4,0.39
					c-0.13,0.13-0.26,0.26-0.39,0.38s-0.26,0.25-0.38,0.38c-0.13,0.13-0.25,0.25-0.38,0.37c-0.12,0.12-0.25,0.24-0.38,0.37V46.14z
					 M8.28,47.91c-0.04,0-0.07-0.01-0.09-0.02c-0.02-0.01-0.05-0.03-0.07-0.05c-0.02-0.02-0.05-0.06-0.1-0.12
					c-0.05-0.06-0.1-0.13-0.17-0.21s-0.13-0.16-0.2-0.25c-0.07-0.09-0.13-0.17-0.2-0.25c-0.08-0.1-0.14-0.19-0.19-0.26
					c-0.05-0.07-0.09-0.15-0.12-0.22c-0.03-0.07-0.06-0.15-0.08-0.24H6.83l0.37-0.5c0.2,0.24,0.39,0.47,0.58,0.71
					c0.19,0.23,0.38,0.47,0.57,0.7c0.19,0.23,0.39,0.47,0.59,0.71c-0.07,0-0.14,0-0.21,0s-0.13,0-0.2,0
					C8.46,47.91,8.37,47.91,8.28,47.91z"/>
				<path class="st5" d="M10.1,47.91c-0.04,0-0.09,0-0.13,0s-0.08,0-0.12,0c-0.01,0-0.02,0-0.04-0.01s-0.02-0.01-0.03-0.02
					c-0.01-0.01-0.01-0.02-0.01-0.04c0-0.34,0-0.68,0-1.01s0-0.67,0-1.01s0-0.67,0-1.01s0-0.67,0-1.01c0-0.13,0-0.26,0-0.39
					s0-0.26,0-0.39c0.05,0,0.09,0,0.14,0s0.09,0,0.13,0s0.09,0,0.13,0s0.09,0,0.13,0c0.02,0,0.03,0,0.04,0.01
					c0.01,0.01,0.02,0.01,0.02,0.02c0.01,0.01,0.01,0.02,0.01,0.04c0,0.35,0,0.7,0,1.05c0,0.35,0,0.7,0,1.05s0,0.7,0,1.05
					c0,0.35,0,0.7,0,1.05c-0.02,0.09-0.04,0.16-0.06,0.22s-0.03,0.12-0.05,0.18s-0.04,0.13-0.06,0.21
					C10.18,47.91,10.14,47.91,10.1,47.91z M10.23,47.38l0.05-0.67c0.16,0.26,0.33,0.44,0.51,0.54s0.37,0.15,0.55,0.15
					c0.15,0,0.27-0.03,0.38-0.09c0.1-0.06,0.19-0.16,0.24-0.28c0.06-0.13,0.09-0.28,0.09-0.45v-0.83c0-0.14-0.02-0.26-0.05-0.36
					s-0.08-0.19-0.15-0.25c-0.06-0.06-0.13-0.11-0.22-0.14c-0.08-0.03-0.18-0.05-0.29-0.05c-0.13,0-0.25,0.03-0.37,0.08
					c-0.12,0.05-0.24,0.13-0.35,0.24c-0.11,0.11-0.22,0.25-0.33,0.42v-0.71h0.18c0.08-0.13,0.18-0.23,0.28-0.33
					c0.1-0.09,0.22-0.16,0.35-0.21c0.13-0.05,0.27-0.07,0.41-0.07c0.17,0,0.32,0.03,0.46,0.09s0.26,0.14,0.36,0.25
					c0.1,0.11,0.18,0.24,0.23,0.4c0.05,0.16,0.08,0.33,0.08,0.54v1.02c0,0.21-0.03,0.39-0.08,0.55c-0.05,0.16-0.13,0.3-0.23,0.41
					c-0.1,0.12-0.22,0.2-0.36,0.26s-0.3,0.09-0.47,0.09c-0.15,0-0.28-0.02-0.41-0.07c-0.13-0.04-0.24-0.11-0.35-0.2
					c-0.11-0.09-0.21-0.2-0.3-0.34H10.23z"/>
				<path class="st5" d="M14.83,47.4c0.31,0,0.54-0.04,0.67-0.14c0.13-0.09,0.2-0.21,0.2-0.35c0-0.08-0.02-0.15-0.05-0.21
					s-0.09-0.11-0.17-0.15c-0.08-0.04-0.19-0.08-0.32-0.1l-0.65-0.13c-0.21-0.04-0.39-0.11-0.52-0.19c-0.14-0.08-0.24-0.18-0.3-0.3
					s-0.09-0.25-0.09-0.41c0-0.15,0.03-0.29,0.09-0.42c0.06-0.13,0.16-0.24,0.28-0.33c0.13-0.09,0.28-0.17,0.47-0.22
					c0.19-0.05,0.4-0.08,0.65-0.08c0.16,0,0.3,0.01,0.42,0.02c0.12,0.01,0.23,0.03,0.32,0.06c0.09,0.02,0.17,0.05,0.22,0.08
					c0.03,0.01,0.04,0.02,0.06,0.03c0.01,0.01,0.02,0.02,0.02,0.03c0,0.01,0,0.03,0,0.06c0,0.07,0,0.14,0,0.22s0,0.16,0,0.24h-0.1
					c-0.1-0.04-0.21-0.07-0.31-0.09c-0.1-0.02-0.21-0.04-0.32-0.05s-0.24-0.02-0.38-0.02c-0.2,0-0.35,0.02-0.48,0.06
					c-0.12,0.04-0.21,0.1-0.27,0.16s-0.08,0.14-0.08,0.22c0,0.07,0.02,0.14,0.05,0.19c0.03,0.05,0.09,0.09,0.17,0.13
					c0.08,0.04,0.19,0.07,0.34,0.1l0.65,0.13c0.19,0.04,0.35,0.1,0.49,0.18c0.13,0.08,0.24,0.19,0.31,0.31s0.11,0.28,0.11,0.46
					c0,0.21-0.06,0.4-0.17,0.56s-0.28,0.28-0.5,0.37c-0.22,0.09-0.48,0.13-0.78,0.13c-0.16,0-0.3-0.01-0.43-0.02
					c-0.13-0.02-0.25-0.04-0.37-0.06c-0.11-0.03-0.21-0.06-0.29-0.09c-0.08-0.04-0.16-0.07-0.22-0.11
					c-0.02-0.01-0.03-0.02-0.03-0.03s-0.01-0.02-0.01-0.05c0-0.07,0-0.16,0-0.25s0-0.18,0-0.27h0.1c0.09,0.06,0.18,0.11,0.27,0.15
					s0.19,0.07,0.29,0.1s0.21,0.04,0.32,0.06S14.69,47.4,14.83,47.4z"/>
				<path class="st5" d="M16.97,44.44h2.46c0.02,0,0.04,0.01,0.05,0.02c0.01,0.01,0.02,0.03,0.02,0.05c0,0.06,0,0.11,0,0.16
					c0,0.05,0,0.1,0,0.16c0,0.05,0,0.11,0,0.17h-2.46c-0.01,0-0.02,0-0.03-0.01c-0.01,0-0.02-0.01-0.02-0.02
					c-0.01-0.01-0.01-0.01-0.02-0.02s-0.01-0.02-0.01-0.03c0-0.06,0-0.12,0-0.17c0-0.05,0-0.1,0-0.16
					C16.97,44.56,16.97,44.5,16.97,44.44z M19.5,47.35c0,0.08,0,0.17,0,0.25c0,0.08,0,0.17,0,0.25c0,0.02-0.01,0.04-0.02,0.05
					c-0.01,0.01-0.03,0.02-0.06,0.02c-0.04,0-0.08,0-0.12,0c-0.04,0-0.08,0-0.12,0s-0.08,0-0.12,0s-0.08,0-0.12,0
					c-0.21,0-0.4-0.03-0.56-0.08c-0.16-0.05-0.3-0.13-0.41-0.23c-0.11-0.11-0.2-0.24-0.25-0.41c-0.06-0.17-0.08-0.37-0.08-0.6
					c0-0.21,0-0.43,0-0.64s0-0.43,0-0.64c0-0.21,0-0.43,0-0.64c0-0.22,0-0.43,0-0.65c0-0.11,0-0.23,0-0.34c0-0.11,0-0.23,0-0.34
					c0.09,0,0.18,0,0.27,0c0.09,0,0.17,0,0.26,0c0.01,0,0.02,0,0.04,0.01c0.01,0.01,0.02,0.02,0.03,0.03
					c0.01,0.01,0.01,0.02,0.01,0.04c0,0.26,0,0.52,0,0.78s0,0.52,0,0.78c0,0.26,0,0.52,0,0.78s0,0.52,0,0.78
					c0,0.16,0.02,0.29,0.05,0.39c0.03,0.1,0.08,0.19,0.15,0.25c0.06,0.06,0.13,0.1,0.22,0.12c0.09,0.02,0.2,0.04,0.32,0.04
					c0.05,0,0.1,0,0.15,0c0.05,0,0.1,0,0.15,0c0.05,0,0.1,0,0.15,0H19.5z"/>
				<path class="st5" d="M21.17,47.91c-0.06,0-0.12,0-0.18,0c-0.06,0-0.12,0-0.18,0c-0.06,0-0.12,0-0.19,0c-0.01,0-0.02,0-0.03,0
					c-0.01,0-0.02-0.01-0.02-0.01c-0.01-0.01-0.01-0.01-0.01-0.02c0-0.01,0-0.02,0-0.03c0-0.09,0-0.22,0-0.37c0-0.16,0-0.33,0-0.53
					c0-0.2,0-0.4,0-0.62c0-0.22,0-0.43,0-0.64s0-0.41,0-0.59c0-0.14,0-0.26,0-0.38c0-0.11,0-0.2,0-0.27c0.07,0,0.14,0,0.2,0
					s0.12,0,0.18,0s0.12,0,0.17,0c0.02,0,0.03,0,0.04,0.01c0.01,0.01,0.02,0.01,0.02,0.02s0.01,0.02,0.01,0.04c0,0.11,0,0.27,0,0.46
					c0,0.19,0,0.41,0,0.65c0,0.24,0,0.5,0,0.77s0,0.53,0,0.79S21.17,47.69,21.17,47.91z M21.06,45.06h0.22
					c0.09-0.16,0.18-0.29,0.27-0.39c0.09-0.1,0.19-0.17,0.3-0.22c0.11-0.05,0.23-0.07,0.36-0.07c0.08,0,0.14,0,0.2,0.02
					c0.05,0.01,0.09,0.03,0.12,0.04c0.02,0.01,0.04,0.02,0.04,0.04c0.01,0.02,0.01,0.04,0.01,0.06c0,0.04,0,0.08,0,0.12
					c0,0.04,0,0.09,0,0.13s0,0.08,0,0.13c0,0.04,0,0.09,0,0.13h-0.1c-0.05-0.01-0.1-0.02-0.15-0.03S22.21,45,22.14,45
					c-0.14,0-0.27,0.03-0.38,0.08c-0.12,0.05-0.23,0.13-0.34,0.24c-0.11,0.11-0.23,0.26-0.35,0.44V45.06z"/>
			</g>
		</g>
	</g>
</g>
</svg>
